<svg xmlns="http://www.w3.org/2000/svg" viewBox="0 0 64 64">
  <defs>
    <linearGradient id="g" x1="8" y1="7" x2="57" y2="59" gradientUnits="userSpaceOnUse">
      <stop stop-color="#5eead4"/>
      <stop offset="1" stop-color="#14b8a6"/>
    </linearGradient>
  </defs>
  <rect width="64" height="64" rx="18" fill="#102a2c"/>
  <path d="M13 21a7 7 0 0 1 7-7h27a5 5 0 0 1 5 5v5H40a9 9 0 1 0 0 18h12v3a5 5 0 0 1-5 5H20a7 7 0 0 1-7-7V21Z" fill="url(#g)"/>
  <path d="M40 28h15a3 3 0 0 1 3 3v7H40a5 5 0 0 1 0-10Z" fill="#f0fdfa"/>
  <circle cx="41" cy="35" r="2" fill="#0f766e"/>
</svg>
